# xmcd
#
# Track frame offsets:
#	182
#	22577
#	63782
#	81955
#	109842
#	114865
#	133512
#	145430
#	181912
#
# Disc length: 2717 seconds
#
# Revision: 4
# Processed by: cddbd v1.5PL3 Copyright (c) Steve Scherf et al.
# Submitted via: dBpowerAMP V4.0
#
DISCID=6b0a9b09
DTITLE=LennyPickett,NYC,withTheBorneoHorns - LennyPickettWithTheBorneoHorns;RykodiscHNCD1321
DYEAR=1986
DGENRE=Jazz
TTITLE0=DanceMusicForBorneoHorns#1(LPickett;1986,LennyPickett,NYC,withTheBorneoHorns)
TTITLE1=SoloForSaxaphoneAndTape(LPickett;1986,LennyPickett,NYC,withTheBorneoHorns)
TTITLE2=DanceMusicForBorneoHorns#2(LPickett;1986,LennyPickett,NYC,withTheBorneoHorns)
TTITLE3=Septet#2(LPickett;1986,LennyPickett,NYC,withTheBorneoHorns)
TTITLE4=DanceSuiteSectionD(LPickett;1986,LennyPickett,NYC,withTheBorneoHorns)
TTITLE5=DanceMusicForBorneoHorns#4(LPickett;1986,LennyPickett,NYC,withTheBorneoHorns)
TTITLE6=DanceSuiteSection1(LPickett;1986,LennyPickett,NYC,withTheBorneoHorns)
TTITLE7=DanceMusicForBorneoHorns#5(LPickett;1986,LennyPickett,NYC,withTheBorneoHorns)
TTITLE8=Landscape(LPickett;1986,LennyPickett,NYC,withTheBorneoHorns)
EXTD=corrected
EXTT0=
EXTT1=
EXTT2=
EXTT3=
EXTT4=
EXTT5=
EXTT6=
EXTT7=
EXTT8=
PLAYORDER=
